<?xml version="1.0" encoding="UTF-8"?>
<svg xmlns="http://www.w3.org/2000/svg" version="1.1" viewBox="0 0 81.9 80.3">
  <defs>
    <style>
      .cls-1 {
        fill: #3ea8ff;
      }
    </style>
  </defs>
  <!-- Generator: Adobe Illustrator 28.6.0, SVG Export Plug-In . SVG Version: 1.2.0 Build 709)  -->
  <g>
    <g id="_レイヤー_1" data-name="レイヤー_1">
      <g>
        <path class="cls-1" d="M.9,80.3h17c.9,0,1.7-.5,2.2-1.2L66.9,2.2c.6-1,0-2.2-1.3-2.2h-16.1c-.8,0-1.5.4-1.9,1.1L.1,78.9c-.3.6.1,1.4.8,1.4Z"/>
        <path class="cls-1" d="M59.5,79.1l22.1-35.5c.7-1.1,0-2.5-1.4-2.5h-16c-.6,0-1.2.3-1.5.8l-22.7,36.3c-.6.9,0,2.1,1.2,2.1h16.3c.8,0,1.6-.4,2-1.2Z"/>
      </g>
    </g>
  </g>
</svg>