<?xml version="1.0" encoding="UTF-8"?>
<svg xmlns="http://www.w3.org/2000/svg" version="1.1" viewBox="0 0 24 18">
  <defs>
    <style>
      .cls-1 {
        fill: #ffc107;
      }

      .cls-2 {
        fill: #f44336;
      }

      .cls-3 {
        fill: #2196f3;
      }
    </style>
  </defs>
  <!-- Generator: Adobe Illustrator 28.6.0, SVG Export Plug-In . SVG Version: 1.2.0 Build 709)  -->
  <g>
    <g id="code-forces">
      <path class="cls-2" d="M24,16.5v-7.5c0-.8-.7-1.5-1.5-1.5h-3c-.8,0-1.5.7-1.5,1.5v7.5c0,.8.7,1.5,1.5,1.5h3c.8,0,1.5-.7,1.5-1.5Z"/>
      <path class="cls-3" d="M13.5,18c.8,0,1.5-.7,1.5-1.5V1.5c0-.8-.7-1.5-1.5-1.5h-3c-.8,0-1.5.7-1.5,1.5v15c0,.8.7,1.5,1.5,1.5h3Z"/>
      <path class="cls-1" d="M0,16.5c0,.8.7,1.5,1.5,1.5h3c.8,0,1.5-.7,1.5-1.5V6c0-.8-.7-1.5-1.5-1.5H1.5c-.8,0-1.5.7-1.5,1.5v10.5Z"/>
    </g>
  </g>
</svg>