<?xml version="1.0" encoding="UTF-8"?>
<svg xmlns="http://www.w3.org/2000/svg" version="1.1" viewBox="0 0 291.6 512.1">
  <defs>
    <style>
      .cls-1 {
        fill: #008abb;
      }
    </style>
  </defs>
  <!-- Generator: Adobe Illustrator 28.6.0, SVG Export Plug-In . SVG Version: 1.2.0 Build 709)  -->
  <g>
    <g id="_レイヤー_1" data-name="レイヤー_1">
      <path class="cls-1" d="M290.2,501.5l-145.8-181.2,139.8-135.3c2.6-2.7,1.7-10.5-5.3-10.5h-69.2c-3.5,0-7,1.8-10.5,5.3l-132.3,133.7V7.5c0-5-2.5-7.5-7.5-7.5H7.5C2.5,0,0,2.5,0,7.5v497c0,5,2.5,7.5,7.5,7.5h51.9c5,0,7.5-2.5,7.5-7.5v-109l30.8-29.3,110.5,140.6c3,3.5,6.5,5.3,10.5,5.3h66.9c3.5,0,5.5-1,6-3l-1.4-7.6Z"/>
    </g>
  </g>
</svg>